<?xml version="1.0" encoding="iso-8859-1"?>
<!-- Generator: Adobe Illustrator 18.0.0, SVG Export Plug-In . SVG Version: 6.00 Build 0)  -->
<!DOCTYPE svg PUBLIC "-//W3C//DTD SVG 1.1//EN" "http://www.w3.org/Graphics/SVG/1.1/DTD/svg11.dtd">
<svg version="1.1" id="Capa_1" xmlns="http://www.w3.org/2000/svg" xmlns:xlink="http://www.w3.org/1999/xlink" x="0px" y="0px"
	 viewBox="0 0 495.32 495.32" style="enable-background:new 0 0 495.32 495.32;" xml:space="preserve">
<g>
	<path d="M247.67,0C153.562,0,77.277,76.285,77.277,170.393c0,71.734,99.034,237.014,146.103,311.514
		c5.254,8.34,14.418,13.406,24.274,13.414c9.851,0,19.03-5.057,24.304-13.389c47.05-74.5,146.084-239.805,146.084-311.539
		C418.043,76.285,341.759,0,247.67,0z M247.67,274.418c-53.227,0-96.369-43.141-96.369-96.363c0-53.227,43.143-96.367,96.369-96.367
		c53.222,0,96.365,43.141,96.365,96.367C344.035,231.277,300.892,274.418,247.67,274.418z"/>
	<path d="M312.004,157.488l-37.168-5.402c-2.079-0.303-3.875-1.611-4.809-3.502l-16.613-33.666c-1.08-2.184-3.307-3.566-5.744-3.566
		s-4.668,1.383-5.748,3.566l-16.607,33.666c-0.934,1.891-2.736,3.199-4.814,3.502l-37.168,5.402
		c-2.408,0.352-4.401,2.037-5.153,4.354c-0.757,2.324-0.131,4.859,1.62,6.563l26.889,26.213c1.504,1.471,2.195,3.59,1.832,5.662
		l-6.35,37.004c-0.408,2.396,0.57,4.83,2.555,6.26c1.963,1.434,4.582,1.621,6.742,0.484l33.227-17.473
		c1.861-0.973,4.088-0.973,5.955,0l33.226,17.473c2.16,1.137,4.773,0.949,6.742-0.484c1.979-1.43,2.962-3.863,2.553-6.26
		l-6.354-37.004c-0.357-2.072,0.328-4.191,1.832-5.662l26.894-26.213c1.751-1.703,2.372-4.238,1.62-6.563
		C316.41,159.525,314.412,157.84,312.004,157.488z"/>
</g>
<g>
</g>
<g>
</g>
<g>
</g>
<g>
</g>
<g>
</g>
<g>
</g>
<g>
</g>
<g>
</g>
<g>
</g>
<g>
</g>
<g>
</g>
<g>
</g>
<g>
</g>
<g>
</g>
<g>
</g>
</svg>
